<svg xmlns="http://www.w3.org/2000/svg" xml:space="preserve" xmlns:xlink="http://www.w3.org/1999/xlink" style="max-width: 100%;height: auto;" width="999" height="999" viewBox="0 0 999 999">
<defs><mask id="qrmask"><g fill="#ffffff"><g>
<g transform="translate(270,54) scale(4.635)"><path d="M6,6H0V3c0-1.7,1.3-3,3-3l3,0V6z"/></g>
<g transform="translate(297,54) scale(4.635)"><rect width="6" height="6"/></g>
<g transform="translate(324,54) scale(4.635)"><path d="M3,6H0V0l3,0c1.7,0,3,1.3,3,3v0C6,4.7,4.7,6,3,6z"/></g>
<g transform="translate(405,54) scale(4.635)"><path d="M6,6H0V3c0-1.7,1.3-3,3-3h0c1.7,0,3,1.3,3,3V6z"/></g>
<g transform="translate(513,54) scale(4.635)"><circle cx="3" cy="3" r="3"/></g>
<g transform="translate(567,54) scale(4.635)"><path d="M6,6H0V3c0-1.7,1.3-3,3-3h0c1.7,0,3,1.3,3,3V6z"/></g>
<g transform="translate(675,54) scale(4.635)"><path d="M6,6H3C1.3,6,0,4.7,0,3v0c0-1.7,1.3-3,3-3h3C6,0,6,6,6,6z"/></g>
<g transform="translate(702,54) scale(4.635)"><path d="M6,6H0V0l3,0c1.7,0,3,1.3,3,3V6z"/></g>
<g transform="translate(270,81) scale(4.635)"><rect width="6" height="6"/></g>
<g transform="translate(297,81) scale(4.635)"><rect width="6" height="6"/></g>
<g transform="translate(378,81) scale(4.635)"><path d="M6,6H3C1.3,6,0,4.7,0,3v0c0-1.7,1.3-3,3-3h3C6,0,6,6,6,6z"/></g>
<g transform="translate(405,81) scale(4.635)"><rect width="6" height="6"/></g>
<g transform="translate(432,81) scale(4.635)"><path d="M6,6H0V0l3,0c1.7,0,3,1.3,3,3V6z"/></g>
<g transform="translate(486,81) scale(4.635)"><path d="M6,6H0V3c0-1.7,1.3-3,3-3h0c1.7,0,3,1.3,3,3V6z"/></g>
<g transform="translate(540,81) scale(4.635)"><path d="M6,6H3C1.3,6,0,4.7,0,3v0c0-1.7,1.3-3,3-3h3C6,0,6,6,6,6z"/></g>
<g transform="translate(567,81) scale(4.635)"><rect width="6" height="6"/></g>
<g transform="translate(594,81) scale(4.635)"><path d="M3,6H0V0l3,0c1.7,0,3,1.3,3,3v0C6,4.7,4.7,6,3,6z"/></g>
<g transform="translate(648,81) scale(4.635)"><path d="M6,6H0V3c0-1.7,1.3-3,3-3h0c1.7,0,3,1.3,3,3V6z"/></g>
<g transform="translate(702,81) scale(4.635)"><rect width="6" height="6"/></g>
<g transform="translate(270,108) scale(4.635)"><path d="M6,6H3C1.3,6,0,4.7,0,3V0l6,0V6z"/></g>
<g transform="translate(297,108) scale(4.635)"><path d="M3,6H0V0l6,0v3C6,4.7,4.7,6,3,6z"/></g>
<g transform="translate(351,108) scale(4.635)"><path d="M6,6H0V3c0-1.7,1.3-3,3-3h0c1.7,0,3,1.3,3,3V6z"/></g>
<g transform="translate(405,108) scale(4.635)"><path d="M6,6H3C1.3,6,0,4.7,0,3V0l6,0V6z"/></g>
<g transform="translate(432,108) scale(4.635)"><path d="M3,6H0V0l6,0v3C6,4.7,4.7,6,3,6z"/></g>
<g transform="translate(486,108) scale(4.635)"><path d="M6,6H3C1.3,6,0,4.7,0,3V0l6,0V6z"/></g>
<g transform="translate(513,108) scale(4.635)"><path d="M3,6H0V0l3,0c1.7,0,3,1.3,3,3v0C6,4.7,4.7,6,3,6z"/></g>
<g transform="translate(621,108) scale(4.635)"><path d="M6,6H3C1.3,6,0,4.7,0,3v0c0-1.7,1.3-3,3-3h3C6,0,6,6,6,6z"/></g>
<g transform="translate(648,108) scale(4.635)"><rect width="6" height="6"/></g>
<g transform="translate(675,108) scale(4.635)"><rect width="6" height="6"/></g>
<g transform="translate(702,108) scale(4.635)"><path d="M3,6H0V0l6,0v3C6,4.7,4.7,6,3,6z"/></g>
<g transform="translate(351,135) scale(4.635)"><path d="M6,6H3C1.3,6,0,4.7,0,3V0l6,0V6z"/></g>
<g transform="translate(378,135) scale(4.635)"><path d="M6,6H0V0l3,0c1.7,0,3,1.3,3,3V6z"/></g>
<g transform="translate(459,135) scale(4.635)"><circle cx="3" cy="3" r="3"/></g>
<g transform="translate(540,135) scale(4.635)"><path d="M6,6H3C1.3,6,0,4.7,0,3v0c0-1.7,1.3-3,3-3h3C6,0,6,6,6,6z"/></g>
<g transform="translate(567,135) scale(4.635)"><rect width="6" height="6"/></g>
<g transform="translate(594,135) scale(4.635)"><path d="M3,6H0V0l3,0c1.7,0,3,1.3,3,3v0C6,4.7,4.7,6,3,6z"/></g>
<g transform="translate(648,135) scale(4.635)"><rect width="6" height="6"/></g>
<g transform="translate(675,135) scale(4.635)"><path d="M3,6H0V0l6,0v3C6,4.7,4.7,6,3,6z"/></g>
<g transform="translate(324,162) scale(4.635)"><path d="M6,6H0V3c0-1.7,1.3-3,3-3h0c1.7,0,3,1.3,3,3V6z"/></g>
<g transform="translate(378,162) scale(4.635)"><rect width="6" height="6"/></g>
<g transform="translate(432,162) scale(4.635)"><circle cx="3" cy="3" r="3"/></g>
<g transform="translate(513,162) scale(4.635)"><path d="M6,6H0V3c0-1.7,1.3-3,3-3h0c1.7,0,3,1.3,3,3V6z"/></g>
<g transform="translate(621,162) scale(4.635)"><path d="M6,6H0V3c0-1.7,1.3-3,3-3l3,0V6z"/></g>
<g transform="translate(648,162) scale(4.635)"><path d="M3,6H0V0l6,0v3C6,4.7,4.7,6,3,6z"/></g>
<g transform="translate(702,162) scale(4.635)"><circle cx="3" cy="3" r="3"/></g>
<g transform="translate(270,189) scale(4.635)"><path d="M6,6H0V3c0-1.7,1.3-3,3-3h0c1.7,0,3,1.3,3,3V6z"/></g>
<g transform="translate(324,189) scale(4.635)"><rect width="6" height="6"/></g>
<g transform="translate(378,189) scale(4.635)"><rect width="6" height="6"/></g>
<g transform="translate(405,189) scale(4.635)"><path d="M3,6H0V0l3,0c1.7,0,3,1.3,3,3v0C6,4.7,4.7,6,3,6z"/></g>
<g transform="translate(459,189) scale(4.635)"><circle cx="3" cy="3" r="3"/></g>
<g transform="translate(513,189) scale(4.635)"><path d="M6,6H3C1.3,6,0,4.7,0,3V0l6,0V6z"/></g>
<g transform="translate(540,189) scale(4.635)"><rect width="6" height="6"/></g>
<g transform="translate(567,189) scale(4.635)"><rect width="6" height="6"/></g>
<g transform="translate(594,189) scale(4.635)"><rect width="6" height="6"/></g>
<g transform="translate(621,189) scale(4.635)"><path d="M3,6H0V0l6,0v3C6,4.7,4.7,6,3,6z"/></g>
<g transform="translate(270,216) scale(4.635)"><rect width="6" height="6"/></g>
<g transform="translate(324,216) scale(4.635)"><rect width="6" height="6"/></g>
<g transform="translate(378,216) scale(4.635)"><rect width="6" height="6"/></g>
<g transform="translate(432,216) scale(4.635)"><path d="M6,6H0V3c0-1.7,1.3-3,3-3h0c1.7,0,3,1.3,3,3V6z"/></g>
<g transform="translate(486,216) scale(4.635)"><path d="M6,6H0V3c0-1.7,1.3-3,3-3h0c1.7,0,3,1.3,3,3V6z"/></g>
<g transform="translate(540,216) scale(4.635)"><rect width="6" height="6"/></g>
<g transform="translate(594,216) scale(4.635)"><rect width="6" height="6"/></g>
<g transform="translate(648,216) scale(4.635)"><circle cx="3" cy="3" r="3"/></g>
<g transform="translate(702,216) scale(4.635)"><path d="M6,6H0V3c0-1.7,1.3-3,3-3h0c1.7,0,3,1.3,3,3V6z"/></g>
<g transform="translate(270,243) scale(4.635)"><rect width="6" height="6"/></g>
<g transform="translate(297,243) scale(4.635)"><rect width="6" height="6"/></g>
<g transform="translate(324,243) scale(4.635)"><rect width="6" height="6"/></g>
<g transform="translate(378,243) scale(4.635)"><rect width="6" height="6"/></g>
<g transform="translate(405,243) scale(4.635)"><rect width="6" height="6"/></g>
<g transform="translate(432,243) scale(4.635)"><rect width="6" height="6"/></g>
<g transform="translate(459,243) scale(4.635)"><rect width="6" height="6"/></g>
<g transform="translate(486,243) scale(4.635)"><rect width="6" height="6"/></g>
<g transform="translate(540,243) scale(4.635)"><path d="M3,6L3,6C1.3,6,0,4.7,0,3V0h6v3C6,4.7,4.7,6,3,6z"/></g>
<g transform="translate(594,243) scale(4.635)"><path d="M3,6L3,6C1.3,6,0,4.7,0,3V0h6v3C6,4.7,4.7,6,3,6z"/></g>
<g transform="translate(702,243) scale(4.635)"><rect width="6" height="6"/></g>
<g transform="translate(108,270) scale(4.635)"><path d="M6,6H0V3c0-1.7,1.3-3,3-3l3,0V6z"/></g>
<g transform="translate(135,270) scale(4.635)"><rect width="6" height="6"/></g>
<g transform="translate(162,270) scale(4.635)"><path d="M3,6H0V0l3,0c1.7,0,3,1.3,3,3v0C6,4.7,4.7,6,3,6z"/></g>
<g transform="translate(216,270) scale(4.635)"><circle cx="3" cy="3" r="3"/></g>
<g transform="translate(270,270) scale(4.635)"><rect width="6" height="6"/></g>
<g transform="translate(324,270) scale(4.635)"><rect width="6" height="6"/></g>
<g transform="translate(378,270) scale(4.635)"><rect width="6" height="6"/></g>
<g transform="translate(432,270) scale(4.635)"><path d="M6,6H3C1.3,6,0,4.7,0,3V0l6,0V6z"/></g>
<g transform="translate(459,270) scale(4.635)"><rect width="6" height="6"/></g>
<g transform="translate(486,270) scale(4.635)"><rect width="6" height="6"/></g>
<g transform="translate(567,270) scale(4.635)"><circle cx="3" cy="3" r="3"/></g>
<g transform="translate(621,270) scale(4.635)"><path d="M6,6H3C1.3,6,0,4.7,0,3v0c0-1.7,1.3-3,3-3h3C6,0,6,6,6,6z"/></g>
<g transform="translate(648,270) scale(4.635)"><path d="M3,6H0V0l3,0c1.7,0,3,1.3,3,3v0C6,4.7,4.7,6,3,6z"/></g>
<g transform="translate(702,270) scale(4.635)"><rect width="6" height="6"/></g>
<g transform="translate(729,270) scale(4.635)"><rect width="6" height="6"/></g>
<g transform="translate(756,270) scale(4.635)"><rect width="6" height="6"/></g>
<g transform="translate(783,270) scale(4.635)"><path d="M3,6H0V0l3,0c1.7,0,3,1.3,3,3v0C6,4.7,4.7,6,3,6z"/></g>
<g transform="translate(864,270) scale(4.635)"><path d="M6,6H0V3c0-1.7,1.3-3,3-3l3,0V6z"/></g>
<g transform="translate(891,270) scale(4.635)"><rect width="6" height="6"/></g>
<g transform="translate(918,270) scale(4.635)"><path d="M6,6H0V0l3,0c1.7,0,3,1.3,3,3V6z"/></g>
<g transform="translate(81,297) scale(4.635)"><path d="M6,6H3C1.3,6,0,4.7,0,3v0c0-1.7,1.3-3,3-3h3C6,0,6,6,6,6z"/></g>
<g transform="translate(108,297) scale(4.635)"><rect width="6" height="6"/></g>
<g transform="translate(135,297) scale(4.635)"><path d="M3,6H0V0l6,0v3C6,4.7,4.7,6,3,6z"/></g>
<g transform="translate(270,297) scale(4.635)"><path d="M6,6H3C1.3,6,0,4.7,0,3V0l6,0V6z"/></g>
<g transform="translate(297,297) scale(4.635)"><rect width="6" height="6"/></g>
<g transform="translate(324,297) scale(4.635)"><rect width="6" height="6"/></g>
<g transform="translate(351,297) scale(4.635)"><rect width="6" height="6"/></g>
<g transform="translate(378,297) scale(4.635)"><rect width="6" height="6"/></g>
<g transform="translate(405,297) scale(4.635)"><path d="M6,6H0V0l3,0c1.7,0,3,1.3,3,3V6z"/></g>
<g transform="translate(459,297) scale(4.635)"><path d="M6,6H3C1.3,6,0,4.7,0,3V0l6,0V6z"/></g>
<g transform="translate(486,297) scale(4.635)"><path d="M3,6H0V0l6,0v3C6,4.7,4.7,6,3,6z"/></g>
<g transform="translate(594,297) scale(4.635)"><path d="M6,6H0V3c0-1.7,1.3-3,3-3h0c1.7,0,3,1.3,3,3V6z"/></g>
<g transform="translate(702,297) scale(4.635)"><path d="M6,6H3C1.3,6,0,4.7,0,3V0l6,0V6z"/></g>
<g transform="translate(729,297) scale(4.635)"><rect width="6" height="6"/></g>
<g transform="translate(756,297) scale(4.635)"><path d="M3,6H0V0l6,0v3C6,4.7,4.7,6,3,6z"/></g>
<g transform="translate(864,297) scale(4.635)"><rect width="6" height="6"/></g>
<g transform="translate(918,297) scale(4.635)"><path d="M3,6L3,6C1.3,6,0,4.7,0,3V0h6v3C6,4.7,4.7,6,3,6z"/></g>
<g transform="translate(54,324) scale(4.635)"><path d="M6,6H0V3c0-1.7,1.3-3,3-3h0c1.7,0,3,1.3,3,3V6z"/></g>
<g transform="translate(162,324) scale(4.635)"><path d="M6,6H0V3c0-1.7,1.3-3,3-3h0c1.7,0,3,1.3,3,3V6z"/></g>
<g transform="translate(216,324) scale(4.635)"><path d="M6,6H3C1.3,6,0,4.7,0,3v0c0-1.7,1.3-3,3-3h3C6,0,6,6,6,6z"/></g>
<g transform="translate(243,324) scale(4.635)"><path d="M6,6H0V0l3,0c1.7,0,3,1.3,3,3V6z"/></g>
<g transform="translate(297,324) scale(4.635)"><rect width="6" height="6"/></g>
<g transform="translate(405,324) scale(4.635)"><path d="M6,6H3C1.3,6,0,4.7,0,3V0l6,0V6z"/></g>
<g transform="translate(432,324) scale(4.635)"><path d="M6,6H0V0l3,0c1.7,0,3,1.3,3,3V6z"/></g>
<g transform="translate(513,324) scale(4.635)"><path d="M6,6H0V3c0-1.7,1.3-3,3-3h0c1.7,0,3,1.3,3,3V6z"/></g>
<g transform="translate(594,324) scale(4.635)"><path d="M3,6L3,6C1.3,6,0,4.7,0,3V0h6v3C6,4.7,4.7,6,3,6z"/></g>
<g transform="translate(648,324) scale(4.635)"><circle cx="3" cy="3" r="3"/></g>
<g transform="translate(783,324) scale(4.635)"><circle cx="3" cy="3" r="3"/></g>
<g transform="translate(864,324) scale(4.635)"><rect width="6" height="6"/></g>
<g transform="translate(891,324) scale(4.635)"><path d="M3,6H0V0l3,0c1.7,0,3,1.3,3,3v0C6,4.7,4.7,6,3,6z"/></g>
<g transform="translate(54,351) scale(4.635)"><path d="M3,6L3,6C1.3,6,0,4.7,0,3V0h6v3C6,4.7,4.7,6,3,6z"/></g>
<g transform="translate(135,351) scale(4.635)"><path d="M6,6H3C1.3,6,0,4.7,0,3v0c0-1.7,1.3-3,3-3h3C6,0,6,6,6,6z"/></g>
<g transform="translate(162,351) scale(4.635)"><rect width="6" height="6"/></g>
<g transform="translate(189,351) scale(4.635)"><path d="M3,6H0V0l3,0c1.7,0,3,1.3,3,3v0C6,4.7,4.7,6,3,6z"/></g>
<g transform="translate(243,351) scale(4.635)"><path d="M3,6L3,6C1.3,6,0,4.7,0,3V0h6v3C6,4.7,4.7,6,3,6z"/></g>
<g transform="translate(297,351) scale(4.635)"><path d="M6,6H3C1.3,6,0,4.7,0,3V0l6,0V6z"/></g>
<g transform="translate(324,351) scale(4.635)"><path d="M6,6H0V0l3,0c1.7,0,3,1.3,3,3V6z"/></g>
<g transform="translate(378,351) scale(4.635)"><circle cx="3" cy="3" r="3"/></g>
<g transform="translate(432,351) scale(4.635)"><rect width="6" height="6"/></g>
<g transform="translate(486,351) scale(4.635)"><path d="M6,6H3C1.3,6,0,4.7,0,3v0c0-1.7,1.3-3,3-3h3C6,0,6,6,6,6z"/></g>
<g transform="translate(513,351) scale(4.635)"><rect width="6" height="6"/></g>
<g transform="translate(567,351) scale(4.635)"><circle cx="3" cy="3" r="3"/></g>
<g transform="translate(729,351) scale(4.635)"><path d="M6,6H0V3c0-1.7,1.3-3,3-3h0c1.7,0,3,1.3,3,3V6z"/></g>
<g transform="translate(864,351) scale(4.635)"><path d="M3,6L3,6C1.3,6,0,4.7,0,3V0h6v3C6,4.7,4.7,6,3,6z"/></g>
<g transform="translate(216,378) scale(4.635)"><circle cx="3" cy="3" r="3"/></g>
<g transform="translate(270,378) scale(4.635)"><path d="M6,6H0V3c0-1.7,1.3-3,3-3h0c1.7,0,3,1.3,3,3V6z"/></g>
<g transform="translate(324,378) scale(4.635)"><rect width="6" height="6"/></g>
<g transform="translate(405,378) scale(4.635)"><path d="M6,6H3C1.3,6,0,4.7,0,3v0c0-1.7,1.3-3,3-3h3C6,0,6,6,6,6z"/></g>
<g transform="translate(432,378) scale(4.635)"><path d="M3,6H0V0l6,0v3C6,4.7,4.7,6,3,6z"/></g>
<g transform="translate(513,378) scale(4.635)"><rect width="6" height="6"/></g>
<g transform="translate(594,378) scale(4.635)"><path d="M6,6H0V3c0-1.7,1.3-3,3-3l3,0V6z"/></g>
<g transform="translate(621,378) scale(4.635)"><rect width="6" height="6"/></g>
<g transform="translate(648,378) scale(4.635)"><rect width="6" height="6"/></g>
<g transform="translate(675,378) scale(4.635)"><rect width="6" height="6"/></g>
<g transform="translate(702,378) scale(4.635)"><rect width="6" height="6"/></g>
<g transform="translate(729,378) scale(4.635)"><path d="M3,6H0V0l6,0v3C6,4.7,4.7,6,3,6z"/></g>
<g transform="translate(783,378) scale(4.635)"><circle cx="3" cy="3" r="3"/></g>
<g transform="translate(837,378) scale(4.635)"><path d="M6,6H0V3c0-1.7,1.3-3,3-3h0c1.7,0,3,1.3,3,3V6z"/></g>
<g transform="translate(891,378) scale(4.635)"><path d="M6,6H3C1.3,6,0,4.7,0,3v0c0-1.7,1.3-3,3-3h3C6,0,6,6,6,6z"/></g>
<g transform="translate(918,378) scale(4.635)"><path d="M6,6H0V0l3,0c1.7,0,3,1.3,3,3V6z"/></g>
<g transform="translate(81,405) scale(4.635)"><path d="M6,6H0V3c0-1.7,1.3-3,3-3l3,0V6z"/></g>
<g transform="translate(108,405) scale(4.635)"><rect width="6" height="6"/></g>
<g transform="translate(135,405) scale(4.635)"><path d="M6,6H0V0l3,0c1.7,0,3,1.3,3,3V6z"/></g>
<g transform="translate(270,405) scale(4.635)"><path d="M3,6L3,6C1.3,6,0,4.7,0,3V0h6v3C6,4.7,4.7,6,3,6z"/></g>
<g transform="translate(324,405) scale(4.635)"><rect width="6" height="6"/></g>
<g transform="translate(513,405) scale(4.635)"><rect width="6" height="6"/></g>
<g transform="translate(567,405) scale(4.635)"><path d="M6,6H0V3c0-1.7,1.3-3,3-3l3,0V6z"/></g>
<g transform="translate(594,405) scale(4.635)"><path d="M3,6H0V0l6,0v3C6,4.7,4.7,6,3,6z"/></g>
<g transform="translate(675,405) scale(4.635)"><path d="M3,6L3,6C1.3,6,0,4.7,0,3V0h6v3C6,4.7,4.7,6,3,6z"/></g>
<g transform="translate(756,405) scale(4.635)"><path d="M6,6H0V3c0-1.7,1.3-3,3-3h0c1.7,0,3,1.3,3,3V6z"/></g>
<g transform="translate(810,405) scale(4.635)"><path d="M6,6H0V3c0-1.7,1.3-3,3-3l3,0V6z"/></g>
<g transform="translate(837,405) scale(4.635)"><path d="M3,6H0V0l6,0v3C6,4.7,4.7,6,3,6z"/></g>
<g transform="translate(918,405) scale(4.635)"><path d="M3,6L3,6C1.3,6,0,4.7,0,3V0h6v3C6,4.7,4.7,6,3,6z"/></g>
<g transform="translate(54,432) scale(4.635)"><path d="M6,6H3C1.3,6,0,4.7,0,3v0c0-1.7,1.3-3,3-3h3C6,0,6,6,6,6z"/></g>
<g transform="translate(81,432) scale(4.635)"><rect width="6" height="6"/></g>
<g transform="translate(108,432) scale(4.635)"><rect width="6" height="6"/></g>
<g transform="translate(135,432) scale(4.635)"><rect width="6" height="6"/></g>
<g transform="translate(162,432) scale(4.635)"><path d="M3,6H0V0l3,0c1.7,0,3,1.3,3,3v0C6,4.7,4.7,6,3,6z"/></g>
<g transform="translate(216,432) scale(4.635)"><path d="M6,6H3C1.3,6,0,4.7,0,3v0c0-1.7,1.3-3,3-3h3C6,0,6,6,6,6z"/></g>
<g transform="translate(243,432) scale(4.635)"><path d="M3,6H0V0l3,0c1.7,0,3,1.3,3,3v0C6,4.7,4.7,6,3,6z"/></g>
<g transform="translate(324,432) scale(4.635)"><rect width="6" height="6"/></g>
<g transform="translate(351,432) scale(4.635)"><rect width="6" height="6"/></g>
<g transform="translate(378,432) scale(4.635)"><path d="M6,6H0V0l3,0c1.7,0,3,1.3,3,3V6z"/></g>
<g transform="translate(432,432) scale(4.635)"><path d="M6,6H3C1.3,6,0,4.7,0,3v0c0-1.7,1.3-3,3-3h3C6,0,6,6,6,6z"/></g>
<g transform="translate(459,432) scale(4.635)"><path d="M3,6H0V0l3,0c1.7,0,3,1.3,3,3v0C6,4.7,4.7,6,3,6z"/></g>
<g transform="translate(513,432) scale(4.635)"><rect width="6" height="6"/></g>
<g transform="translate(540,432) scale(4.635)"><rect width="6" height="6"/></g>
<g transform="translate(567,432) scale(4.635)"><path d="M3,6H0V0l6,0v3C6,4.7,4.7,6,3,6z"/></g>
<g transform="translate(648,432) scale(4.635)"><path d="M6,6H0V3c0-1.7,1.3-3,3-3h0c1.7,0,3,1.3,3,3V6z"/></g>
<g transform="translate(702,432) scale(4.635)"><path d="M6,6H0V3c0-1.7,1.3-3,3-3h0c1.7,0,3,1.3,3,3V6z"/></g>
<g transform="translate(756,432) scale(4.635)"><rect width="6" height="6"/></g>
<g transform="translate(783,432) scale(4.635)"><rect width="6" height="6"/></g>
<g transform="translate(810,432) scale(4.635)"><rect width="6" height="6"/></g>
<g transform="translate(864,432) scale(4.635)"><path d="M6,6H3C1.3,6,0,4.7,0,3v0c0-1.7,1.3-3,3-3h3C6,0,6,6,6,6z"/></g>
<g transform="translate(891,432) scale(4.635)"><path d="M6,6H0V0l3,0c1.7,0,3,1.3,3,3V6z"/></g>
<g transform="translate(81,459) scale(4.635)"><rect width="6" height="6"/></g>
<g transform="translate(135,459) scale(4.635)"><rect width="6" height="6"/></g>
<g transform="translate(324,459) scale(4.635)"><path d="M3,6L3,6C1.3,6,0,4.7,0,3V0h6v3C6,4.7,4.7,6,3,6z"/></g>
<g transform="translate(378,459) scale(4.635)"><path d="M3,6L3,6C1.3,6,0,4.7,0,3V0h6v3C6,4.7,4.7,6,3,6z"/></g>
<g transform="translate(486,459) scale(4.635)"><path d="M6,6H0V3c0-1.7,1.3-3,3-3l3,0V6z"/></g>
<g transform="translate(513,459) scale(4.635)"><rect width="6" height="6"/></g>
<g transform="translate(540,459) scale(4.635)"><path d="M3,6H0V0l6,0v3C6,4.7,4.7,6,3,6z"/></g>
<g transform="translate(594,459) scale(4.635)"><path d="M6,6H3C1.3,6,0,4.7,0,3v0c0-1.7,1.3-3,3-3h3C6,0,6,6,6,6z"/></g>
<g transform="translate(621,459) scale(4.635)"><rect width="6" height="6"/></g>
<g transform="translate(648,459) scale(4.635)"><path d="M3,6H0V0l6,0v3C6,4.7,4.7,6,3,6z"/></g>
<g transform="translate(702,459) scale(4.635)"><path d="M6,6H3C1.3,6,0,4.7,0,3V0l6,0V6z"/></g>
<g transform="translate(729,459) scale(4.635)"><rect width="6" height="6"/></g>
<g transform="translate(756,459) scale(4.635)"><path d="M3,6H0V0l6,0v3C6,4.7,4.7,6,3,6z"/></g>
<g transform="translate(810,459) scale(4.635)"><path d="M3,6L3,6C1.3,6,0,4.7,0,3V0h6v3C6,4.7,4.7,6,3,6z"/></g>
<g transform="translate(891,459) scale(4.635)"><path d="M3,6L3,6C1.3,6,0,4.7,0,3V0h6v3C6,4.7,4.7,6,3,6z"/></g>
<g transform="translate(54,486) scale(4.635)"><path d="M6,6H3C1.3,6,0,4.7,0,3v0c0-1.7,1.3-3,3-3h3C6,0,6,6,6,6z"/></g>
<g transform="translate(81,486) scale(4.635)"><rect width="6" height="6"/></g>
<g transform="translate(108,486) scale(4.635)"><rect width="6" height="6"/></g>
<g transform="translate(135,486) scale(4.635)"><rect width="6" height="6"/></g>
<g transform="translate(162,486) scale(4.635)"><rect width="6" height="6"/></g>
<g transform="translate(189,486) scale(4.635)"><rect width="6" height="6"/></g>
<g transform="translate(216,486) scale(4.635)"><path d="M3,6H0V0l3,0c1.7,0,3,1.3,3,3v0C6,4.7,4.7,6,3,6z"/></g>
<g transform="translate(351,486) scale(4.635)"><path d="M6,6H0V3c0-1.7,1.3-3,3-3h0c1.7,0,3,1.3,3,3V6z"/></g>
<g transform="translate(405,486) scale(4.635)"><path d="M6,6H0V3c0-1.7,1.3-3,3-3l3,0V6z"/></g>
<g transform="translate(432,486) scale(4.635)"><rect width="6" height="6"/></g>
<g transform="translate(459,486) scale(4.635)"><rect width="6" height="6"/></g>
<g transform="translate(486,486) scale(4.635)"><rect width="6" height="6"/></g>
<g transform="translate(513,486) scale(4.635)"><path d="M3,6H0V0l6,0v3C6,4.7,4.7,6,3,6z"/></g>
<g transform="translate(675,486) scale(4.635)"><path d="M6,6H0V3c0-1.7,1.3-3,3-3h0c1.7,0,3,1.3,3,3V6z"/></g>
<g transform="translate(729,486) scale(4.635)"><path d="M3,6L3,6C1.3,6,0,4.7,0,3V0h6v3C6,4.7,4.7,6,3,6z"/></g>
<g transform="translate(783,486) scale(4.635)"><path d="M6,6H0V3c0-1.7,1.3-3,3-3h0c1.7,0,3,1.3,3,3V6z"/></g>
<g transform="translate(864,486) scale(4.635)"><circle cx="3" cy="3" r="3"/></g>
<g transform="translate(243,513) scale(4.635)"><path d="M6,6H0V3c0-1.7,1.3-3,3-3h0c1.7,0,3,1.3,3,3V6z"/></g>
<g transform="translate(297,513) scale(4.635)"><circle cx="3" cy="3" r="3"/></g>
<g transform="translate(351,513) scale(4.635)"><path d="M3,6L3,6C1.3,6,0,4.7,0,3V0h6v3C6,4.7,4.7,6,3,6z"/></g>
<g transform="translate(405,513) scale(4.635)"><rect width="6" height="6"/></g>
<g transform="translate(486,513) scale(4.635)"><rect width="6" height="6"/></g>
<g transform="translate(621,513) scale(4.635)"><circle cx="3" cy="3" r="3"/></g>
<g transform="translate(675,513) scale(4.635)"><path d="M6,6H3C1.3,6,0,4.7,0,3V0l6,0V6z"/></g>
<g transform="translate(702,513) scale(4.635)"><path d="M3,6H0V0l3,0c1.7,0,3,1.3,3,3v0C6,4.7,4.7,6,3,6z"/></g>
<g transform="translate(783,513) scale(4.635)"><rect width="6" height="6"/></g>
<g transform="translate(891,513) scale(4.635)"><path d="M6,6H0V3c0-1.7,1.3-3,3-3h0c1.7,0,3,1.3,3,3V6z"/></g>
<g transform="translate(54,540) scale(4.635)"><path d="M6,6H0V3c0-1.7,1.3-3,3-3l3,0V6z"/></g>
<g transform="translate(81,540) scale(4.635)"><path d="M6,6H0V0l3,0c1.7,0,3,1.3,3,3V6z"/></g>
<g transform="translate(135,540) scale(4.635)"><path d="M6,6H0V3c0-1.7,1.3-3,3-3l3,0V6z"/></g>
<g transform="translate(162,540) scale(4.635)"><path d="M3,6H0V0l3,0c1.7,0,3,1.3,3,3v0C6,4.7,4.7,6,3,6z"/></g>
<g transform="translate(216,540) scale(4.635)"><path d="M6,6H3C1.3,6,0,4.7,0,3v0c0-1.7,1.3-3,3-3h3C6,0,6,6,6,6z"/></g>
<g transform="translate(243,540) scale(4.635)"><rect width="6" height="6"/></g>
<g transform="translate(270,540) scale(4.635)"><path d="M6,6H0V0l3,0c1.7,0,3,1.3,3,3V6z"/></g>
<g transform="translate(378,540) scale(4.635)"><path d="M6,6H3C1.3,6,0,4.7,0,3v0c0-1.7,1.3-3,3-3h3C6,0,6,6,6,6z"/></g>
<g transform="translate(405,540) scale(4.635)"><rect width="6" height="6"/></g>
<g transform="translate(432,540) scale(4.635)"><path d="M6,6H0V0l3,0c1.7,0,3,1.3,3,3V6z"/></g>
<g transform="translate(486,540) scale(4.635)"><rect width="6" height="6"/></g>
<g transform="translate(513,540) scale(4.635)"><rect width="6" height="6"/></g>
<g transform="translate(540,540) scale(4.635)"><path d="M3,6H0V0l3,0c1.7,0,3,1.3,3,3v0C6,4.7,4.7,6,3,6z"/></g>
<g transform="translate(594,540) scale(4.635)"><path d="M6,6H0V3c0-1.7,1.3-3,3-3h0c1.7,0,3,1.3,3,3V6z"/></g>
<g transform="translate(783,540) scale(4.635)"><rect width="6" height="6"/></g>
<g transform="translate(864,540) scale(4.635)"><path d="M6,6H0V3c0-1.7,1.3-3,3-3l3,0V6z"/></g>
<g transform="translate(891,540) scale(4.635)"><path d="M3,6H0V0l6,0v3C6,4.7,4.7,6,3,6z"/></g>
<g transform="translate(54,567) scale(4.635)"><rect width="6" height="6"/></g>
<g transform="translate(81,567) scale(4.635)"><rect width="6" height="6"/></g>
<g transform="translate(108,567) scale(4.635)"><rect width="6" height="6"/></g>
<g transform="translate(135,567) scale(4.635)"><path d="M3,6H0V0l6,0v3C6,4.7,4.7,6,3,6z"/></g>
<g transform="translate(270,567) scale(4.635)"><path d="M3,6L3,6C1.3,6,0,4.7,0,3V0h6v3C6,4.7,4.7,6,3,6z"/></g>
<g transform="translate(351,567) scale(4.635)"><circle cx="3" cy="3" r="3"/></g>
<g transform="translate(405,567) scale(4.635)"><path d="M6,6H3C1.3,6,0,4.7,0,3V0l6,0V6z"/></g>
<g transform="translate(432,567) scale(4.635)"><rect width="6" height="6"/></g>
<g transform="translate(486,567) scale(4.635)"><rect width="6" height="6"/></g>
<g transform="translate(513,567) scale(4.635)"><path d="M3,6H0V0l6,0v3C6,4.7,4.7,6,3,6z"/></g>
<g transform="translate(567,567) scale(4.635)"><path d="M6,6H0V3c0-1.7,1.3-3,3-3l3,0V6z"/></g>
<g transform="translate(594,567) scale(4.635)"><rect width="6" height="6"/></g>
<g transform="translate(621,567) scale(4.635)"><rect width="6" height="6"/></g>
<g transform="translate(648,567) scale(4.635)"><rect width="6" height="6"/></g>
<g transform="translate(675,567) scale(4.635)"><rect width="6" height="6"/></g>
<g transform="translate(702,567) scale(4.635)"><rect width="6" height="6"/></g>
<g transform="translate(729,567) scale(4.635)"><path d="M3,6H0V0l3,0c1.7,0,3,1.3,3,3v0C6,4.7,4.7,6,3,6z"/></g>
<g transform="translate(783,567) scale(4.635)"><rect width="6" height="6"/></g>
<g transform="translate(837,567) scale(4.635)"><path d="M6,6H0V3c0-1.7,1.3-3,3-3l3,0V6z"/></g>
<g transform="translate(864,567) scale(4.635)"><path d="M3,6H0V0l6,0v3C6,4.7,4.7,6,3,6z"/></g>
<g transform="translate(54,594) scale(4.635)"><rect width="6" height="6"/></g>
<g transform="translate(81,594) scale(4.635)"><rect width="6" height="6"/></g>
<g transform="translate(108,594) scale(4.635)"><path d="M3,6H0V0l6,0v3C6,4.7,4.7,6,3,6z"/></g>
<g transform="translate(162,594) scale(4.635)"><circle cx="3" cy="3" r="3"/></g>
<g transform="translate(216,594) scale(4.635)"><circle cx="3" cy="3" r="3"/></g>
<g transform="translate(297,594) scale(4.635)"><path d="M6,6H0V3c0-1.7,1.3-3,3-3l3,0V6z"/></g>
<g transform="translate(324,594) scale(4.635)"><path d="M6,6H0V0l3,0c1.7,0,3,1.3,3,3V6z"/></g>
<g transform="translate(378,594) scale(4.635)"><path d="M6,6H0V3c0-1.7,1.3-3,3-3h0c1.7,0,3,1.3,3,3V6z"/></g>
<g transform="translate(432,594) scale(4.635)"><path d="M3,6L3,6C1.3,6,0,4.7,0,3V0h6v3C6,4.7,4.7,6,3,6z"/></g>
<g transform="translate(486,594) scale(4.635)"><rect width="6" height="6"/></g>
<g transform="translate(540,594) scale(4.635)"><path d="M6,6H3C1.3,6,0,4.7,0,3v0c0-1.7,1.3-3,3-3h3C6,0,6,6,6,6z"/></g>
<g transform="translate(567,594) scale(4.635)"><rect width="6" height="6"/></g>
<g transform="translate(594,594) scale(4.635)"><rect width="6" height="6"/></g>
<g transform="translate(648,594) scale(4.635)"><rect width="6" height="6"/></g>
<g transform="translate(702,594) scale(4.635)"><path d="M3,6L3,6C1.3,6,0,4.7,0,3V0h6v3C6,4.7,4.7,6,3,6z"/></g>
<g transform="translate(783,594) scale(4.635)"><path d="M6,6H3C1.3,6,0,4.7,0,3V0l6,0V6z"/></g>
<g transform="translate(810,594) scale(4.635)"><rect width="6" height="6"/></g>
<g transform="translate(837,594) scale(4.635)"><rect width="6" height="6"/></g>
<g transform="translate(891,594) scale(4.635)"><path d="M6,6H3C1.3,6,0,4.7,0,3v0c0-1.7,1.3-3,3-3h3C6,0,6,6,6,6z"/></g>
<g transform="translate(918,594) scale(4.635)"><path d="M6,6H0V0l3,0c1.7,0,3,1.3,3,3V6z"/></g>
<g transform="translate(54,621) scale(4.635)"><rect width="6" height="6"/></g>
<g transform="translate(189,621) scale(4.635)"><path d="M6,6H0V3c0-1.7,1.3-3,3-3h0c1.7,0,3,1.3,3,3V6z"/></g>
<g transform="translate(270,621) scale(4.635)"><path d="M6,6H0V3c0-1.7,1.3-3,3-3l3,0V6z"/></g>
<g transform="translate(297,621) scale(4.635)"><rect width="6" height="6"/></g>
<g transform="translate(324,621) scale(4.635)"><path d="M3,6H0V0l6,0v3C6,4.7,4.7,6,3,6z"/></g>
<g transform="translate(378,621) scale(4.635)"><rect width="6" height="6"/></g>
<g transform="translate(459,621) scale(4.635)"><path d="M6,6H0V3c0-1.7,1.3-3,3-3l3,0V6z"/></g>
<g transform="translate(486,621) scale(4.635)"><rect width="6" height="6"/></g>
<g transform="translate(513,621) scale(4.635)"><path d="M3,6H0V0l3,0c1.7,0,3,1.3,3,3v0C6,4.7,4.7,6,3,6z"/></g>
<g transform="translate(567,621) scale(4.635)"><rect width="6" height="6"/></g>
<g transform="translate(594,621) scale(4.635)"><path d="M3,6H0V0l6,0v3C6,4.7,4.7,6,3,6z"/></g>
<g transform="translate(648,621) scale(4.635)"><path d="M3,6L3,6C1.3,6,0,4.7,0,3V0h6v3C6,4.7,4.7,6,3,6z"/></g>
<g transform="translate(729,621) scale(4.635)"><circle cx="3" cy="3" r="3"/></g>
<g transform="translate(837,621) scale(4.635)"><rect width="6" height="6"/></g>
<g transform="translate(918,621) scale(4.635)"><path d="M3,6L3,6C1.3,6,0,4.7,0,3V0h6v3C6,4.7,4.7,6,3,6z"/></g>
<g transform="translate(54,648) scale(4.635)"><rect width="6" height="6"/></g>
<g transform="translate(108,648) scale(4.635)"><circle cx="3" cy="3" r="3"/></g>
<g transform="translate(162,648) scale(4.635)"><path d="M6,6H0V3c0-1.7,1.3-3,3-3l3,0V6z"/></g>
<g transform="translate(189,648) scale(4.635)"><rect width="6" height="6"/></g>
<g transform="translate(216,648) scale(4.635)"><rect width="6" height="6"/></g>
<g transform="translate(243,648) scale(4.635)"><rect width="6" height="6"/></g>
<g transform="translate(270,648) scale(4.635)"><path d="M3,6H0V0l6,0v3C6,4.7,4.7,6,3,6z"/></g>
<g transform="translate(378,648) scale(4.635)"><rect width="6" height="6"/></g>
<g transform="translate(405,648) scale(4.635)"><rect width="6" height="6"/></g>
<g transform="translate(432,648) scale(4.635)"><rect width="6" height="6"/></g>
<g transform="translate(459,648) scale(4.635)"><rect width="6" height="6"/></g>
<g transform="translate(486,648) scale(4.635)"><rect width="6" height="6"/></g>
<g transform="translate(567,648) scale(4.635)"><path d="M3,6L3,6C1.3,6,0,4.7,0,3V0h6v3C6,4.7,4.7,6,3,6z"/></g>
<g transform="translate(621,648) scale(4.635)"><circle cx="3" cy="3" r="3"/></g>
<g transform="translate(675,648) scale(4.635)"><path d="M6,6H0V3c0-1.7,1.3-3,3-3l3,0V6z"/></g>
<g transform="translate(702,648) scale(4.635)"><path d="M3,6H0V0l3,0c1.7,0,3,1.3,3,3v0C6,4.7,4.7,6,3,6z"/></g>
<g transform="translate(810,648) scale(4.635)"><path d="M6,6H3C1.3,6,0,4.7,0,3v0c0-1.7,1.3-3,3-3h3C6,0,6,6,6,6z"/></g>
<g transform="translate(837,648) scale(4.635)"><rect width="6" height="6"/></g>
<g transform="translate(54,675) scale(4.635)"><rect width="6" height="6"/></g>
<g transform="translate(162,675) scale(4.635)"><rect width="6" height="6"/></g>
<g transform="translate(189,675) scale(4.635)"><rect width="6" height="6"/></g>
<g transform="translate(297,675) scale(4.635)"><path d="M6,6H0V3c0-1.7,1.3-3,3-3l3,0V6z"/></g>
<g transform="translate(324,675) scale(4.635)"><rect width="6" height="6"/></g>
<g transform="translate(351,675) scale(4.635)"><rect width="6" height="6"/></g>
<g transform="translate(378,675) scale(4.635)"><rect width="6" height="6"/></g>
<g transform="translate(405,675) scale(4.635)"><rect width="6" height="6"/></g>
<g transform="translate(486,675) scale(4.635)"><rect width="6" height="6"/></g>
<g transform="translate(594,675) scale(4.635)"><circle cx="3" cy="3" r="3"/></g>
<g transform="translate(675,675) scale(4.635)"><rect width="6" height="6"/></g>
<g transform="translate(783,675) scale(4.635)"><path d="M6,6H0V3c0-1.7,1.3-3,3-3h0c1.7,0,3,1.3,3,3V6z"/></g>
<g transform="translate(837,675) scale(4.635)"><path d="M6,6H3C1.3,6,0,4.7,0,3V0l6,0V6z"/></g>
<g transform="translate(864,675) scale(4.635)"><path d="M3,6H0V0l3,0c1.7,0,3,1.3,3,3v0C6,4.7,4.7,6,3,6z"/></g>
<g transform="translate(54,702) scale(4.635)"><path d="M3,6L3,6C1.3,6,0,4.7,0,3V0h6v3C6,4.7,4.7,6,3,6z"/></g>
<g transform="translate(162,702) scale(4.635)"><path d="M6,6H3C1.3,6,0,4.7,0,3V0l6,0V6z"/></g>
<g transform="translate(189,702) scale(4.635)"><rect width="6" height="6"/></g>
<g transform="translate(216,702) scale(4.635)"><path d="M3,6H0V0l3,0c1.7,0,3,1.3,3,3v0C6,4.7,4.7,6,3,6z"/></g>
<g transform="translate(270,702) scale(4.635)"><path d="M6,6H0V3c0-1.7,1.3-3,3-3l3,0V6z"/></g>
<g transform="translate(297,702) scale(4.635)"><path d="M3,6H0V0l6,0v3C6,4.7,4.7,6,3,6z"/></g>
<g transform="translate(378,702) scale(4.635)"><path d="M6,6H3C1.3,6,0,4.7,0,3V0l6,0V6z"/></g>
<g transform="translate(405,702) scale(4.635)"><rect width="6" height="6"/></g>
<g transform="translate(432,702) scale(4.635)"><path d="M6,6H0V0l3,0c1.7,0,3,1.3,3,3V6z"/></g>
<g transform="translate(486,702) scale(4.635)"><path d="M3,6L3,6C1.3,6,0,4.7,0,3V0h6v3C6,4.7,4.7,6,3,6z"/></g>
<g transform="translate(540,702) scale(4.635)"><circle cx="3" cy="3" r="3"/></g>
<g transform="translate(621,702) scale(4.635)"><path d="M6,6H0V3c0-1.7,1.3-3,3-3l3,0V6z"/></g>
<g transform="translate(648,702) scale(4.635)"><rect width="6" height="6"/></g>
<g transform="translate(675,702) scale(4.635)"><rect width="6" height="6"/></g>
<g transform="translate(702,702) scale(4.635)"><rect width="6" height="6"/></g>
<g transform="translate(729,702) scale(4.635)"><rect width="6" height="6"/></g>
<g transform="translate(756,702) scale(4.635)"><rect width="6" height="6"/></g>
<g transform="translate(783,702) scale(4.635)"><rect width="6" height="6"/></g>
<g transform="translate(810,702) scale(4.635)"><path d="M6,6H0V0l3,0c1.7,0,3,1.3,3,3V6z"/></g>
<g transform="translate(891,702) scale(4.635)"><circle cx="3" cy="3" r="3"/></g>
<g transform="translate(270,729) scale(4.635)"><path d="M3,6L3,6C1.3,6,0,4.7,0,3V0h6v3C6,4.7,4.7,6,3,6z"/></g>
<g transform="translate(351,729) scale(4.635)"><circle cx="3" cy="3" r="3"/></g>
<g transform="translate(405,729) scale(4.635)"><rect width="6" height="6"/></g>
<g transform="translate(432,729) scale(4.635)"><rect width="6" height="6"/></g>
<g transform="translate(459,729) scale(4.635)"><path d="M6,6H0V0l3,0c1.7,0,3,1.3,3,3V6z"/></g>
<g transform="translate(567,729) scale(4.635)"><path d="M6,6H0V3c0-1.7,1.3-3,3-3h0c1.7,0,3,1.3,3,3V6z"/></g>
<g transform="translate(621,729) scale(4.635)"><rect width="6" height="6"/></g>
<g transform="translate(648,729) scale(4.635)"><path d="M3,6H0V0l6,0v3C6,4.7,4.7,6,3,6z"/></g>
<g transform="translate(702,729) scale(4.635)"><rect width="6" height="6"/></g>
<g transform="translate(810,729) scale(4.635)"><rect width="6" height="6"/></g>
<g transform="translate(837,729) scale(4.635)"><rect width="6" height="6"/></g>
<g transform="translate(864,729) scale(4.635)"><path d="M3,6H0V0l3,0c1.7,0,3,1.3,3,3v0C6,4.7,4.7,6,3,6z"/></g>
<g transform="translate(918,729) scale(4.635)"><circle cx="3" cy="3" r="3"/></g>
<g transform="translate(378,756) scale(4.635)"><path d="M6,6H0V3c0-1.7,1.3-3,3-3l3,0V6z"/></g>
<g transform="translate(405,756) scale(4.635)"><rect width="6" height="6"/></g>
<g transform="translate(459,756) scale(4.635)"><path d="M6,6H3C1.3,6,0,4.7,0,3V0l6,0V6z"/></g>
<g transform="translate(486,756) scale(4.635)"><path d="M6,6H0V0l3,0c1.7,0,3,1.3,3,3V6z"/></g>
<g transform="translate(540,756) scale(4.635)"><path d="M6,6H3C1.3,6,0,4.7,0,3v0c0-1.7,1.3-3,3-3h3C6,0,6,6,6,6z"/></g>
<g transform="translate(567,756) scale(4.635)"><rect width="6" height="6"/></g>
<g transform="translate(621,756) scale(4.635)"><rect width="6" height="6"/></g>
<g transform="translate(675,756) scale(4.635)"><path d="M6,6H3C1.3,6,0,4.7,0,3v0c0-1.7,1.3-3,3-3h3C6,0,6,6,6,6z"/></g>
<g transform="translate(702,756) scale(4.635)"><rect width="6" height="6"/></g>
<g transform="translate(756,756) scale(4.635)"><circle cx="3" cy="3" r="3"/></g>
<g transform="translate(810,756) scale(4.635)"><rect width="6" height="6"/></g>
<g transform="translate(837,756) scale(4.635)"><rect width="6" height="6"/></g>
<g transform="translate(891,756) scale(4.635)"><path d="M6,6H0V3c0-1.7,1.3-3,3-3h0c1.7,0,3,1.3,3,3V6z"/></g>
<g transform="translate(297,783) scale(4.635)"><path d="M6,6H0V3c0-1.7,1.3-3,3-3h0c1.7,0,3,1.3,3,3V6z"/></g>
<g transform="translate(351,783) scale(4.635)"><path d="M6,6H0V3c0-1.7,1.3-3,3-3l3,0V6z"/></g>
<g transform="translate(378,783) scale(4.635)"><rect width="6" height="6"/></g>
<g transform="translate(405,783) scale(4.635)"><rect width="6" height="6"/></g>
<g transform="translate(486,783) scale(4.635)"><rect width="6" height="6"/></g>
<g transform="translate(567,783) scale(4.635)"><rect width="6" height="6"/></g>
<g transform="translate(621,783) scale(4.635)"><rect width="6" height="6"/></g>
<g transform="translate(648,783) scale(4.635)"><path d="M3,6H0V0l3,0c1.7,0,3,1.3,3,3v0C6,4.7,4.7,6,3,6z"/></g>
<g transform="translate(702,783) scale(4.635)"><rect width="6" height="6"/></g>
<g transform="translate(810,783) scale(4.635)"><rect width="6" height="6"/></g>
<g transform="translate(837,783) scale(4.635)"><path d="M3,6H0V0l6,0v3C6,4.7,4.7,6,3,6z"/></g>
<g transform="translate(891,783) scale(4.635)"><rect width="6" height="6"/></g>
<g transform="translate(918,783) scale(4.635)"><path d="M6,6H0V0l3,0c1.7,0,3,1.3,3,3V6z"/></g>
<g transform="translate(270,810) scale(4.635)"><path d="M6,6H0V3c0-1.7,1.3-3,3-3l3,0V6z"/></g>
<g transform="translate(297,810) scale(4.635)"><rect width="6" height="6"/></g>
<g transform="translate(351,810) scale(4.635)"><path d="M6,6H3C1.3,6,0,4.7,0,3V0l6,0V6z"/></g>
<g transform="translate(378,810) scale(4.635)"><rect width="6" height="6"/></g>
<g transform="translate(405,810) scale(4.635)"><rect width="6" height="6"/></g>
<g transform="translate(486,810) scale(4.635)"><path d="M3,6L3,6C1.3,6,0,4.7,0,3V0h6v3C6,4.7,4.7,6,3,6z"/></g>
<g transform="translate(567,810) scale(4.635)"><path d="M3,6L3,6C1.3,6,0,4.7,0,3V0h6v3C6,4.7,4.7,6,3,6z"/></g>
<g transform="translate(621,810) scale(4.635)"><rect width="6" height="6"/></g>
<g transform="translate(675,810) scale(4.635)"><path d="M6,6H3C1.3,6,0,4.7,0,3v0c0-1.7,1.3-3,3-3h3C6,0,6,6,6,6z"/></g>
<g transform="translate(702,810) scale(4.635)"><rect width="6" height="6"/></g>
<g transform="translate(729,810) scale(4.635)"><rect width="6" height="6"/></g>
<g transform="translate(756,810) scale(4.635)"><rect width="6" height="6"/></g>
<g transform="translate(783,810) scale(4.635)"><rect width="6" height="6"/></g>
<g transform="translate(810,810) scale(4.635)"><rect width="6" height="6"/></g>
<g transform="translate(864,810) scale(4.635)"><path d="M6,6H0V3c0-1.7,1.3-3,3-3l3,0V6z"/></g>
<g transform="translate(891,810) scale(4.635)"><rect width="6" height="6"/></g>
<g transform="translate(918,810) scale(4.635)"><path d="M3,6H0V0l6,0v3C6,4.7,4.7,6,3,6z"/></g>
<g transform="translate(270,837) scale(4.635)"><rect width="6" height="6"/></g>
<g transform="translate(297,837) scale(4.635)"><rect width="6" height="6"/></g>
<g transform="translate(378,837) scale(4.635)"><rect width="6" height="6"/></g>
<g transform="translate(405,837) scale(4.635)"><rect width="6" height="6"/></g>
<g transform="translate(540,837) scale(4.635)"><path d="M6,6H0V3c0-1.7,1.3-3,3-3h0c1.7,0,3,1.3,3,3V6z"/></g>
<g transform="translate(594,837) scale(4.635)"><path d="M6,6H0V3c0-1.7,1.3-3,3-3l3,0V6z"/></g>
<g transform="translate(621,837) scale(4.635)"><rect width="6" height="6"/></g>
<g transform="translate(648,837) scale(4.635)"><path d="M3,6H0V0l3,0c1.7,0,3,1.3,3,3v0C6,4.7,4.7,6,3,6z"/></g>
<g transform="translate(702,837) scale(4.635)"><rect width="6" height="6"/></g>
<g transform="translate(729,837) scale(4.635)"><rect width="6" height="6"/></g>
<g transform="translate(810,837) scale(4.635)"><path d="M3,6L3,6C1.3,6,0,4.7,0,3V0h6v3C6,4.7,4.7,6,3,6z"/></g>
<g transform="translate(864,837) scale(4.635)"><rect width="6" height="6"/></g>
<g transform="translate(891,837) scale(4.635)"><path d="M3,6H0V0l6,0v3C6,4.7,4.7,6,3,6z"/></g>
<g transform="translate(270,864) scale(4.635)"><path d="M6,6H3C1.3,6,0,4.7,0,3V0l6,0V6z"/></g>
<g transform="translate(297,864) scale(4.635)"><rect width="6" height="6"/></g>
<g transform="translate(378,864) scale(4.635)"><rect width="6" height="6"/></g>
<g transform="translate(405,864) scale(4.635)"><path d="M3,6H0V0l6,0v3C6,4.7,4.7,6,3,6z"/></g>
<g transform="translate(513,864) scale(4.635)"><path d="M6,6H3C1.3,6,0,4.7,0,3v0c0-1.7,1.3-3,3-3h3C6,0,6,6,6,6z"/></g>
<g transform="translate(540,864) scale(4.635)"><rect width="6" height="6"/></g>
<g transform="translate(567,864) scale(4.635)"><rect width="6" height="6"/></g>
<g transform="translate(594,864) scale(4.635)"><rect width="6" height="6"/></g>
<g transform="translate(621,864) scale(4.635)"><path d="M3,6H0V0l6,0v3C6,4.7,4.7,6,3,6z"/></g>
<g transform="translate(702,864) scale(4.635)"><path d="M6,6H3C1.3,6,0,4.7,0,3V0l6,0V6z"/></g>
<g transform="translate(729,864) scale(4.635)"><rect width="6" height="6"/></g>
<g transform="translate(756,864) scale(4.635)"><path d="M6,6H0V0l3,0c1.7,0,3,1.3,3,3V6z"/></g>
<g transform="translate(864,864) scale(4.635)"><rect width="6" height="6"/></g>
<g transform="translate(297,891) scale(4.635)"><path d="M6,6H3C1.3,6,0,4.7,0,3V0l6,0V6z"/></g>
<g transform="translate(324,891) scale(4.635)"><path d="M3,6H0V0l3,0c1.7,0,3,1.3,3,3v0C6,4.7,4.7,6,3,6z"/></g>
<g transform="translate(378,891) scale(4.635)"><path d="M3,6L3,6C1.3,6,0,4.7,0,3V0h6v3C6,4.7,4.7,6,3,6z"/></g>
<g transform="translate(432,891) scale(4.635)"><path d="M6,6H0V3c0-1.7,1.3-3,3-3h0c1.7,0,3,1.3,3,3V6z"/></g>
<g transform="translate(486,891) scale(4.635)"><circle cx="3" cy="3" r="3"/></g>
<g transform="translate(594,891) scale(4.635)"><rect width="6" height="6"/></g>
<g transform="translate(648,891) scale(4.635)"><circle cx="3" cy="3" r="3"/></g>
<g transform="translate(729,891) scale(4.635)"><path d="M6,6H3C1.3,6,0,4.7,0,3V0l6,0V6z"/></g>
<g transform="translate(756,891) scale(4.635)"><rect width="6" height="6"/></g>
<g transform="translate(783,891) scale(4.635)"><path d="M3,6H0V0l3,0c1.7,0,3,1.3,3,3v0C6,4.7,4.7,6,3,6z"/></g>
<g transform="translate(864,891) scale(4.635)"><rect width="6" height="6"/></g>
<g transform="translate(432,918) scale(4.635)"><path d="M6,6H3C1.3,6,0,4.7,0,3V0l6,0V6z"/></g>
<g transform="translate(459,918) scale(4.635)"><path d="M3,6H0V0l3,0c1.7,0,3,1.3,3,3v0C6,4.7,4.7,6,3,6z"/></g>
<g transform="translate(567,918) scale(4.635)"><path d="M6,6H3C1.3,6,0,4.7,0,3v0c0-1.7,1.3-3,3-3h3C6,0,6,6,6,6z"/></g>
<g transform="translate(594,918) scale(4.635)"><rect width="6" height="6"/></g>
<g transform="translate(621,918) scale(4.635)"><path d="M3,6H0V0l3,0c1.7,0,3,1.3,3,3v0C6,4.7,4.7,6,3,6z"/></g>
<g transform="translate(675,918) scale(4.635)"><path d="M6,6H3C1.3,6,0,4.7,0,3v0c0-1.7,1.3-3,3-3h3C6,0,6,6,6,6z"/></g>
<g transform="translate(702,918) scale(4.635)"><path d="M3,6H0V0l3,0c1.7,0,3,1.3,3,3v0C6,4.7,4.7,6,3,6z"/></g>
<g transform="translate(864,918) scale(4.635)"><path d="M6,6H3C1.3,6,0,4.7,0,3V0l6,0V6z"/></g>
<g transform="translate(891,918) scale(4.635)"><path d="M3,6H0V0l3,0c1.7,0,3,1.3,3,3v0C6,4.7,4.7,6,3,6z"/></g>
</g></g></mask></defs>
<rect width="999" height="999" fill="#030303" x="0" y="0" />
<rect x="0" y="0" width="999" height="999" mask="url(#qrmask)" fill="#ffffff" />
<g><g transform="translate(54,54)"  fill="#ffffff"><g transform="scale(13.5)"><path d="M4.5,14h5.1C12,14,14,12,14,9.6V4.5C14,2,12,0,9.5,0H4.4C2,0,0,2,0,4.4v5.1C0,12,2,14,4.5,14z M12,4.8v4.4 c0,1.5-1.3,2.8-2.8,2.8H4.8C3.2,12,2,10.8,2,9.2V4.8C2,3.3,3.3,2,4.8,2h4.4C10.8,2,12,3.2,12,4.8z"/></g></g>
<g transform="translate(108,108)"  fill="#ffffff"><g transform="scale(13.5)"><path d="M6,1.7v2.7C6,5.2,5.2,6,4.3,6H1.7C0.7,6,0,5.3,0,4.3V1.7C0,0.8,0.8,0,1.7,0h2.7C5.3,0,6,0.7,6,1.7z"/></g></g>
<g transform="translate(756,54)"  fill="#ffffff"><g transform="scale(13.5)"><path d="M4.5,14h5.1C12,14,14,12,14,9.6V4.5C14,2,12,0,9.5,0H4.4C2,0,0,2,0,4.4v5.1C0,12,2,14,4.5,14z M12,4.8v4.4 c0,1.5-1.3,2.8-2.8,2.8H4.8C3.2,12,2,10.8,2,9.2V4.8C2,3.3,3.3,2,4.8,2h4.4C10.8,2,12,3.2,12,4.8z"/></g></g>
<g transform="translate(810,108)"  fill="#ffffff"><g transform="scale(13.5)"><path d="M6,1.7v2.7C6,5.2,5.2,6,4.3,6H1.7C0.7,6,0,5.3,0,4.3V1.7C0,0.8,0.8,0,1.7,0h2.7C5.3,0,6,0.7,6,1.7z"/></g></g>
<g transform="translate(54,756)"  fill="#ffffff"><g transform="scale(13.5)"><path d="M4.5,14h5.1C12,14,14,12,14,9.6V4.5C14,2,12,0,9.5,0H4.4C2,0,0,2,0,4.4v5.1C0,12,2,14,4.5,14z M12,4.8v4.4 c0,1.5-1.3,2.8-2.8,2.8H4.8C3.2,12,2,10.8,2,9.2V4.8C2,3.3,3.3,2,4.8,2h4.4C10.8,2,12,3.2,12,4.8z"/></g></g>
<g transform="translate(108,810)"  fill="#ffffff"><g transform="scale(13.5)"><path d="M6,1.7v2.7C6,5.2,5.2,6,4.3,6H1.7C0.7,6,0,5.3,0,4.3V1.7C0,0.8,0.8,0,1.7,0h2.7C5.3,0,6,0.7,6,1.7z"/></g></g></g>
</svg>
